<svg xmlns="http://www.w3.org/2000/svg" width="920" height="420" viewBox="0 0 920 420" role="img">
  <title>profile_cot_reality_Llama-3.1-8B-Instruct_gen_mid.svg</title>
  <rect width="100%" height="100%" fill="#fbfcfd"/>
  <style>
    text { font-family: Inter, Segoe UI, Arial, sans-serif; fill: #172026; }
    .title { font-size: 22px; font-weight: 700; }
    .sub { font-size: 13px; fill: #5f6b73; }
    .label { font-size: 13px; }
    .small { font-size: 11px; fill: #5f6b73; }
    .num { font-size: 18px; font-weight: 700; }
  </style>

  <text class="title" x="28" y="38">cot_reality_Llama-3.1-8B-Instruct</text>
  <text class="sub" x="28" y="62">Layer profile: gen_mid (32 layers)</text>
  <rect x="76" y="92" width="760" height="250" fill="#ffffff" stroke="#d7dde2"/>

  <line x1="76" y1="342.0" x2="836" y2="342.0" stroke="#d7dde2" stroke-width="1"/>
  <text class="small" x="24" y="346.0">0.02</text>

  <line x1="76" y1="292.0" x2="836" y2="292.0" stroke="#d7dde2" stroke-width="1"/>
  <text class="small" x="24" y="296.0">0.22</text>

  <line x1="76" y1="242.0" x2="836" y2="242.0" stroke="#d7dde2" stroke-width="1"/>
  <text class="small" x="24" y="246.0">0.41</text>

  <line x1="76" y1="192.0" x2="836" y2="192.0" stroke="#d7dde2" stroke-width="1"/>
  <text class="small" x="24" y="196.0">0.61</text>

  <line x1="76" y1="142.0" x2="836" y2="142.0" stroke="#d7dde2" stroke-width="1"/>
  <text class="small" x="24" y="146.0">0.80</text>

  <line x1="76" y1="92.0" x2="836" y2="92.0" stroke="#d7dde2" stroke-width="1"/>
  <text class="small" x="24" y="96.0">1.00</text>
  <polyline points="76.0,331.4 100.5,342.0 125.0,336.7 149.5,342.0 174.1,342.0 198.6,342.0 223.1,342.0 247.6,331.4 272.1,336.7 296.6,342.0 321.2,336.7 345.7,342.0 370.2,331.4 394.7,342.0 419.2,342.0 443.7,336.7 468.3,342.0 492.8,342.0 517.3,336.7 541.8,326.0 566.3,288.8 590.8,272.9 615.4,278.2 639.9,267.5 664.4,251.6 688.9,251.6 713.4,251.6 737.9,251.6 762.5,251.6 787.0,246.3 811.5,246.3 836.0,246.3" fill="none" stroke="#2f6fed" stroke-width="2.4"/>
  <rect x="76" y="374" width="12" height="12" fill="#2f6fed"/>
  <text class="small" x="94" y="385">answer_nn</text>
  <polyline points="76.0,129.2 100.5,134.6 125.0,129.2 149.5,123.9 174.1,113.3 198.6,118.6 223.1,118.6 247.6,118.6 272.1,123.9 296.6,118.6 321.2,123.9 345.7,123.9 370.2,129.2 394.7,118.6 419.2,118.6 443.7,123.9 468.3,118.6 492.8,118.6 517.3,123.9 541.8,134.6 566.3,166.5 590.8,187.7 615.4,182.4 639.9,193.1 664.4,203.7 688.9,198.4 713.4,198.4 737.9,198.4 762.5,198.4 787.0,198.4 811.5,198.4 836.0,198.4" fill="none" stroke="#13866f" stroke-width="2.4"/>
  <rect x="221" y="374" width="12" height="12" fill="#13866f"/>
  <text class="small" x="239" y="385">operation_nn</text>
  <polyline points="76.0,108.0 100.5,108.0 125.0,102.6 149.5,97.3 174.1,92.0 198.6,92.0 223.1,92.0 247.6,97.3 272.1,97.3 296.6,92.0 321.2,92.0 345.7,92.0 370.2,97.3 394.7,92.0 419.2,92.0 443.7,97.3 468.3,92.0 492.8,92.0 517.3,92.0 541.8,97.3 566.3,102.6 590.8,97.3 615.4,92.0 639.9,92.0 664.4,97.3 688.9,97.3 713.4,97.3 737.9,97.3 762.5,97.3 787.0,102.6 811.5,102.6 836.0,102.6" fill="none" stroke="#c76f1b" stroke-width="2.4"/>
  <rect x="366" y="374" width="12" height="12" fill="#c76f1b"/>
  <text class="small" x="384" y="385">mode_nn</text>

</svg>
